<?xml version="1.0" encoding="UTF-8"?>
<svg id="Layer_1" xmlns="http://www.w3.org/2000/svg" version="1.1" viewBox="0 0 133 128.6699982">
  <!-- Generator: Adobe Illustrator 30.3.0, SVG Export Plug-In . SVG Version: 2.1.3 Build 182)  -->
  <defs>
    <style>
      .st0 {
        fill: #ef9c60;
      }

      .st1 {
        fill: #fffdd1;
      }

      .st2 {
        fill: #fbaa00;
      }

      .st3 {
        fill: #606060;
      }

      .st4 {
        fill: #faab00;
      }

      .st5 {
        stroke: #000;
        stroke-miterlimit: 10;
      }

      .st5, .st6 {
        fill: #30537d;
      }

      .st7 {
        fill: #fff;
      }

      .st8 {
        fill: #ffff8d;
        isolation: isolate;
        opacity: .35;
      }

      .st9 {
        fill: #ef9a5f;
      }

      .st10 {
        fill: #1f1104;
      }

      .st11 {
        fill: #d47939;
      }
    </style>
  </defs>
  <g id="LOGO">
    <ellipse class="st5" cx="64.879415" cy="65.2666305" rx="58.1438454" ry="61.5116782"/>
    <g id="outline">
      <g>
        <path class="st1" d="M41.2195307,75.5723882c-2.4827655-.8043143-5.9664926-2.2952356-9.2441355-5.0809144-2.7673523-2.354093-4.0430834-4.5120072-4.3963612-5.129961-.843945-1.4909251-1.2757292-2.8151-1.3640491-3.0897466,0,0-.4514112-1.4124535-.6182375-2.8151-.3729049-3.0995536,1.8056487-5.8263751,2.9439922-8.9847824,1.3149833-3.6390322-.2453327-3.6782679.5299195-11.0348038.3434661-3.2663037.7261845-6.6797359,2.4238862-10.7111163.5691717-1.3536018,2.1294877-4.7964608,5.2795585-8.3570252,1.2266634-1.3928375,4.1706556-4.6395215,8.8908577-6.895527,6.9085692-3.3055367,12.8161806-2.1775349,13.3755388-4.629713.3630913-1.618438-1.9724731-3.1584059-1.452369-3.8548249.5887969-.7945058,4.3080413.205983,7.1735289,2.2265779.8145063.5689054,1.8547145,1.4418813,2.2472483,1.1378107.4514112-.3531139-.5004808-1.8636559,0-2.3148563.5299195-.4806268,2.5023963.4315835,3.6996135,1.9028907.4906654.5983317.7654368,1.196663.9224533,1.1378107.3140255-.1177045-.6869285-2.481605-.1275703-2.8641447.6182357-.4217746,3.493535,1.4320724,4.2197251,4.1294684.2355173.8533581.1766398,1.510542.7458134,2.0892563.6967439.6964188,1.3738645.3433054,2.7280982.6375661,2.9832463.6571839,3.4150342,3.2074492,6.2510794,3.4919028.3434643.0392348.735998.0392348.8341296.2746437.3140255.7160366-3.4150342,2.4914135-3.1697015,3.1780242.0883162.2452179.7654368.2452179,2.1294859.2452179,0,0,1.2953563,0,2.9243689.4119661.0686929.0196179.1962632.0490428.2747714.1667482.1275703.2059821-.0588774.4512-.1275703.8239322-.0785083.4119661,0,.8631661.1472011,1.1181929.2453327.4119661.7163747.4021571,1.3051717.5787143.9322612.2844536,1.5112502.853359,2.5808971,1.9127001.2845868.2844536.843945.872975,1.4131186,1.7067161,2.0019156,2.9426144,1.5799431,5.2868965,2.64959,5.5419233.5201041.1275125.8046909-.3825393,2.7575369-1.9323161,0,0,.3238409-.2550268,2.7379136-1.9911697,1.8743453-1.3536018,4.5141198-1.5595858,12.0213014-1.6576733,7.3305417-.0980875,8.0567243.0588518,9.5287204-.5394786,1.4916194-.6081411,3.0813779-.872975,4.6220743-1.3241768,1.1972247-.3531143,1.795837-.5394786,2.2472408-.2059821.2257019.1569393.9028225.7945054.1962632,4.1098519-.745806,3.5213287-2.1981862,6.0617859-2.64959,6.8464823-3.1402553,5.3751751-4.7005751,8.0529537-6.4277192,9.6615823-3.2383944,3.0112751-6.5356662,4.2667893-8.567013,5.0220608-3.9155075,1.4516893-6.9183846,2.5600751-10.5689361,1.8244215-1.4916194-.3040715-2.9734309-.8827858-3.6603669-.1275143-.6673052.7454607.1472011,1.9813608.1962632,4.6002858.0294387,1.5399679-.2257094,2.6091179-.6869285,4.5610538-.1570165.6669929-.7654368,3.1486002-2.2472483,6.0519788-1.000954,1.9715537-1.5505043,2.4521786-2.0509776,2.7366323-1.0205849.5885214-1.6584513.2746428-2.7771677.7847002-1.324795.5983322-1.6780746,1.5890144-2.5710892,2.6973965-2.6299666,3.227068-6.3884651,3.0407-6.349211,4.2275536.0196233.7356536,1.4719961,1.1378145,3.1402553,1.7851857,3.8370067,1.4909213,6.3099569,3.3447752,11.0988481,6.9151467,3.385588,2.5306501,5.1716096,4.4139215,5.7113445,4.9926396,3.1697015,3.4134359,3.9351383,5.551736,4.2589718,6.7876287.3336489,1.3045608.951892,3.648843-.1962632,4.9926321-.7850676.9220216-1.8056449.686607-2.8066065,2.0009787-.6574898.8631642-.372903,1.1868536-1.059839,2.19715-.735998,1.0887679-1.1972247.9122108-2.6103433,2.19715-1.68789,1.5301571-1.4818115,2.1775358-2.8066065,2.8935678-.9715153.5198607-1.3934878.4806249-1.7075134.7258428-.0686929.0490466-.215894.1373214-.2257094.2746428,0,.1471322.1570165.264832.2060786.3040678.5495428.4413892.6967439,2.8739537-.4612266,3.7175037-.0196233.0098108-.0785083.0490466-.2060786.1275106-.8046909.4806249-1.3149796.7062286-1.952846,1.0201072-.4612266.2354071-.2257094.1275106-1.4916194.8043143-.7163747.3825393-1.0794623.5787106-1.5897585.8337392-.6673052.3334927-1.1874093.5787106-1.6191972.7748893-.372903.1765572-.8145063.3727285-1.4033032.6277571-.5004808.2157929-.8733837.3629251-1.2462867.5100499-.7065593.2844536-1.2659175.4904357-1.5014348.5787106-.0785083.0294249-1.0696469.4021609-1.8743453.6768037-1.432742.4806249-2.6299666.7748893-3.7290597,1.0495322-2.1098626.5198607-3.7094289.7945035-4.0430853.84355-.7752522.1275106-1.9332227.3138786-3.3463414.4610108-.7948755.0882748-1.8743453.1765572-3.1598861.2354071-1.6388205.0784715-2.8949226.0588499-3.6898019.0490466-.7948792-.0098108-1.3640491-.0392358-1.560316-.0490466-.9322649-.0392358-1.6780746-.0980856-2.1294859-.1373214-.1864515-.0196141-.9126379-.0784715-1.8743415-.1961713-.3042139-.0392358-1.0107694-.1275106-1.9135957-.2746428-.9715191-.156943-1.7369558-.3040678-2.1981825-.3923501-.4612266-.0882748-1.0696506-.2157929-1.8645299-.4021609-.9911424-.2354071-1.7271404-.4512-2.3748223-.6375679-.735998-.2157929-1.2855446-.3825393-1.5505043-.4708216-.2943985-.0882748-.6476781-.2059821-1.1187164-.3629251-.3729067-.1275106-.6574898-.2354071-1.0696506-.3825393-.3532797-.1275106-.5789853-.2157929-.716371-.264832-.2060786-.0784715-.3827184-.1471322-.5201041-.1961713-.127574-.0490466-.3238409-.1275106-.5691736-.2256037-.2845868-.1177073-.4808537-.1961713-.7654368-.3236894-.3140255-.1275106-.500477-.2157929-.7654368-.3236894-.127574-.0588499-.1177586-.0588499-.500477-.2256037,0,0-.1962669-.0882748-.4121571-.186368,0,0-.0196271-.0098108-.0392541-.0196141-.0883199-.0392358-.1570128-.0784715-.215894-.0980856-.1472011-.0686607-.215894-.0980856-.2943985-.1373214-.0785083-.0392358-.0883199-.0392358-.1668244-.0784715-.107947-.0490466-.1864515-.0882748-.2257056-.1078965,0,0-.1373857-.0686607-.4219725-.2059821-.235521-.1177073-1.1481552-.6375679-2.3748223-1.3634107.608424-6.4835609.0490658-8.1510394-.6280511-8.3570215-.5102924-.156943-.951892.5296715-2.2276212,1.1966644-1.7369558.9122108-3.5131639.9416357-4.8379608.7945035-3.8664436-.5100499-6.9281944-.4610108-9.0576821-.3040678-1.5014367.1078965-2.7771659.2942644-4.5631875-.1373214-2.3748204-.5689072-4.0332699-1.8146107-5.0832935-2.618925-.9518911-.7356536-2.2079941-1.8636573-3.2580177-3.5605607-.5986119-.9612573-1.2659166-2.0892535-.8439446-2.8935678.3336526-.6277571,1.1874102-.7847002,1.6977022-.872975,1.0892768-.1961713,2.0411678.1373214,2.4140736.264832,1.1187174.4119642,1.5308754.9710606,1.9528479.7356536.3140255-.1667464.1766398-.5100499.5887988-1.0789571.0490667-.0686607.5691717-.7748893,1.36405-.9416357.2355191-.0490466.4514122-.0490466,1.8841541.4708216,1.0794642.3825393,1.6093818.5787106,2.0215408.8043143.3925319.2256037.7850638.5100499,1.560316,1.0789571.9518901.6964178,1.0696506.8337392,1.3640491.872975.304212.0392358.9420766-.0196141,1.8252757-1.0789571,2.1491148-.2942644,4.2982296-.5787106,6.4473426-.872975,1.2168499-.5198607,2.4336997-1.029918,3.6505515-1.5497787.608424-.5394823,1.2168517-1.0789571,1.8252757-1.6086286.2649597-.8337392.5201041-1.6576751.7850638-2.4914144-.1766398-.608143-.3434643-1.2064752-.5201041-1.8146107-.3238409-.8533609-.6476781-1.7067142-.9813307-2.5502643.1472011-.6964178.3042139-1.3928357.4514112-2.0794502,1.324795-1.29475,2.6495937-2.5993108,3.9743887-3.8940609,1.0892777-1.1378145,2.16874-2.2854323,3.2580177-3.4232393,1.0892777-.872975,2.16874-1.74595,3.2580177-2.618925v-1.3437966c-1.1481552-.8043143-2.3061257-1.6086286-3.4542846-2.4227537-.6182394-.4413892-1.2266634-.8827858-1.8449028-1.3339858l-.0097892.0196366Z"/>
        <path d="M81.7092384,123.9004598c.5004808-.1859862,1.000954-.3621816,1.5014348-.5481603-.5887969-2.2709593-1.108901-4.3853046-1.5701277-6.3430284-.1570165-.6754171-.3630951-1.5955422-.3827184-2.8289103-.0098154-1.1452666.1472011-2.0164531.2453327-2.5450394.2453327-1.2920974.6084277-2.2318039.7458134-2.5744041.3827184-.9494972.7654368-1.5563868,1.5112502-2.7603903.8145063-1.3018881,1.5308735-2.2513854,1.7565829-2.5450394.3336489-.4307016.2453327-.2936616,1.5603123-1.9479331,0,0,.3827184-.4796402,1.167786-1.4878668.5789815-.7439371.6280511-.8124572.6771206-.8907679.264956-.4209109.5887969-1.0669559.7458134-2.0360345-.2060786.2740801-.48085.6166803-.7948755.9984359-.6771206.8124572-.8831991.9690712-1.1285318.9886526-.2551481.019574-.4023492-.1076754-.8145063-.3621816-.6869285-.401337-.9126379-.4111202-1.5112502-.7145725-1.2855409-.6460524-3.0519392-1.9968792-3.7879372-2.5744041-.9715153-.7635111-2.1883708-1.7521637-3.5426045-2.9757411.107947.4307016.3042101.9690712.6280511,1.5368129.6771206,1.184422,1.5897585,1.8500484,2.119678,2.1828653.0588774,1.2235774.1373857,2.2513854.2060786,3.0638351.0686929.8124572.1177624,1.3997728.2257094,2.2220132.1373857,1.0767466.2060786,1.6151236.264956,1.8794131.1962632.9494972.3827184,1.3508267.2060786,1.9283591-.0588774.1957694-.0883162.1761954-.4514112.8222404,0,0-.4023492.7145725-.7261826,1.4095635-.4121571.8809772-.6378665,1.6249143-.7261826,1.9479331-.4612266,1.5759683-.5397349,2.9463764-.5397349,3.7588261,0,.8418218.0686929,1.6053329.2060786,2.4863101.5004808,3.1127811,1.6584513,6.3723931,2.2276175,7.8896245l-.0196308.0195889Z"/>
        <path d="M11.6422215,14.9922867c1.1285295.5677414,2.8556719,1.3801956,5.0440388,2.2024384,2.3159409.8711853,2.5809002.7830887,4.9949741,1.6542816,2.0313549.7341461,4.4061737,1.6053314,7.1048336,3.2596054,1.3640499.8320312,2.4337006,1.634697,3.1598854,2.2220154.4612236-.8222427,1.0598373-1.7619476,1.8350868-2.7408066.7360001-.9201355,1.4621849-1.6836472,2.1294861-2.2905426-.0686913-.636261-.1766396-1.5955429-.3630905-2.7603912-.2355194-1.4976578-.4317818-2.290535-.5593567-3.0051041-.1275749-.6852036-.5102921-2.96595-.2649612-5.6578217.1472015-1.6151199.412159-4.1307983,2.001915-5.6969757.6574898-.6460495,1.1972275-.7928772,1.5210648-.8418198.7850609-.1174622,1.5799408.1957703,2.1000443.6949921.5004768.4796448.480854.9103394.8439445,1.8989944.637867,1.7521591,1.5701294,2.9365845,1.9528503,3.4162216.4906654.616684.9911423,1.0767517,2.001915,2.0164566.6869354.636261,1.2757301,1.1452713,1.6977043,1.4878693,1.7075157-.8222427,3.2383881-1.3508301,4.4650536-1.7032166,2.060791-.5971069,3.7192459-.7928772,4.7202034-.9201279,1.0205841-.1272507,1.8841515-.1859894,2.5220184-.2153549-.8733826-.7047806-1.4621849-1.3704071-1.8350868-1.8500443-.2845879-.3719711-.5102921-.7145691-1.0500259-1.3899841-.3925323-.4992218-.7261848-.8907623-.951889-1.1452713.4514084-.0587311,1.0794601-.1174622,1.844902-.0783081.9813309.0489426,1.6977005.2251358,2.6299667.4600677.6084213.1566162,1.4131126.3523865,2.4140701.7733002.3042145.1272507.8243179.3523865,1.6388206.7830887.8930092.4796448,2.1098595,1.2040024,3.532795,2.2611694-.2747726-.6264725-.5789795-1.0669556-.7948761-1.3410416-.6869278-.9103394-1.2462845-1.1354752-1.8252792-2.0556107-.2747688-.4404831-.4317818-.8418198-.5200996-1.0963211.2845879.0293655.7163734.0978851,1.2168465.2447128,1.344429.3817596,2.2472458,1.0375977,3.3168945,1.8304749.608429.4502716,1.4033051,1.0865326,2.2766876,1.9381485l.7065582.6068878v-.7830887c-.0490646-.2545013-.1275711-.655838-.2649536-1.1354752-.2453308-.8614044-.4317856-1.2235794-.3042145-1.3410416.1570206-.1468277.6574936.1859818,1.0892792.4796371.7065582.4796448,1.1972275.9592896,1.5308762,1.3018875.7360001.7439346,1.108902,1.1159058,1.4719925,1.5759735.5397415.675415,1.2757339,1.7032166,1.9234085,3.1323547.4906693.0783081,1.1579742.2055588,1.9332275.4404907.2551422.0783081,1.2560959.381752,2.6299667,1.0571671.5299149.254509.9715118.5090103,2.4140701,1.3899841.7752533.4698563,1.8056412,1.1159058,3.0224991,1.8892059.1472015.0783081.2944031.1468277.441597.2251358.5299225-.3034439,1.33461-.7537231,2.3453827-1.2333679.7850647-.3719635,1.1383438-.4894257,1.8841476-.8418198.5102921-.2447128,1.1481552-.5579529,2.5710907-1.3704071,2.1981812-1.2627335,3.3070908-1.8891983,3.8664474-2.329689,2.001915-1.5661774,3.3561478-2.96595,3.3561478-2.96595.1570206-.1664047.6182327-.6460495,1.3640518-1.0082321.4808502-.2349243,1.0205841-.4992142,1.6486359-.401329,1.2070389.1761932,1.8547134,1.5466003,2.0117264,1.8696213.2158966.4600677.3827209,1.0278091.4121628,2.3786392.0392532,2.3590546-.4219742,4.258049-.7261887,5.276062-.4121552,1.3997726-.883194,2.4275818-1.1972198,3.0932083-.3140259.675415-.6967468,1.4682922-1.33461,2.4373627-.608429.9201279-1.1481552,1.5270233-1.776207,2.2415924-.1766434.1957779-.8733826.9886551-2.1589279,2.1926498-.7850647.7341461-1.8350906,1.6836472-3.1500702,2.7408142.3336487.8418198.6574936,1.6738586.9911499,2.5156784.6378632-.5090103,1.5701218-1.1844254,2.7673492-1.8598404,1.8645325-1.0571671,3.4248428-1.5563889,4.9851608-2.0556107,1.2757339-.401329,2.5416412-.8026657,4.2687912-1.03759,1.3738632-.1859894,2.4140701-.1859894,3.0617523-.1859894,2.1589279,0,4.9066544-.0293655,8.6945877-.1076736,1.4916229-.1076736,2.66922-.3328094,3.4444733-.5187988,2.9930649-.7047806,4.4846878-1.0669556,5.1617966-1.3997726.1373901-.0685196.5691681-.2936554,1.108902-.2251358.402359.0489426.608429.1859818.677124.2447128.1962738.1664124.2845764.3719711.3434753.5187988.2944031.8124542.274765,1.8206863.2649689,2.1339188-.0392456,1.8892059,0,1.6151276-.0294495,1.9185715-.1177521,1.2137909-.4023438,2.0653992-.9028168,3.5141144-.5102997,1.4878693-1.0107727,2.584198-1.1383514,2.8778534-.2453308.5285873-.9126282,1.9577255-1.9920959,3.7196732-1.0990906,1.7815323-2.0804214,2.985527-3.0911942,4.2482605-.8537598,1.0669632-1.5308762,1.8989944-2.5710907,2.9561691-.6182327.6264648-1.5995636,1.6151199-3.0617523,2.691864-.6967468.5187988-2.0902328,1.4976578-4.0234528,2.4177933-2.001915.9592819-3.6603699,1.4193497-4.2884216,1.5857544-1.8252716.4698563-3.2481995.6068954-4.1804733.6852036-1.6977005.1468353-3.0421219.1076736-4.1412125.0783081-1.0598373-.0293579-1.9528503-.0978775-2.6201553-.1566162.0883179,1.2823105.1177673,2.985527-.058876,4.9824066-.1079483,1.1746368-.2944031,3.1617279-1.0500183,5.6480331-.39254,1.292099-.8930206,2.9170151-2.0411758,4.7964287-.6967392,1.1452675-1.5603104,2.5254631-3.2187576,3.6217842-.8930206.5873184-1.6878967.9494972-1.72715.8809776-.0294342-.0489464.3630981-.2642899.441597-.6656265.0686951-.3523903-.0490646-.7635117-.2060776-.7928734-.1766357-.0293655-.3434601.381752-.5593567.7733002-.3140259.5579529-.7850647,1.0180168-1.7467651,1.9479332-.3434677.3328094-1.0500259.998436-2.0411758,1.7227974-.5102844.3719673-1.1285324.7635117-2.3650055,1.5563889-.451416.2838707-.8145065.518795-1.059845.6656265.4612274.2642899,1.1677933.6558342,2.0215454,1.1159019,1.8448944.9886513,3.2089462,1.634697,3.5622253,1.810894,3.2678299,1.6053314,6.7908096,4.4733963,7.8015747,5.3152199.5887985.4894295,3.1893234,2.6918678,6.0449982,6.0885201,2.1294861,2.5352516,2.8164215,3.8665009,3.2481995,5.2467022.6967468,2.2709579.4906616,4.0916424.441597,4.5027618-.1275711,1.0082264-.3238449,2.0458183-.8832016,3.0344715-.4023514.7047806-.8733826,1.2137871-.9813309,1.1452656-.0883179-.0489464.1275711-.4307003,0-.9103413-.0785065-.3034439-.2551498-.5285854-.4121552-.6851997-.5299225,1.155056-1.108902,2.0653992-1.5897598,2.7212334-.1472015.1957703-.7065582.9788628-1.5897598,1.889204-.7654343.7928772-1.393486,1.3116722-2.0411682,1.8304749-.5102921.4111214-1.3247986,1.0375919-2.3846359,1.7325821-.4906616.3230267-.9224548.5775251-1.2561035.7733021-.0686874.4698572-.1570129,1.0963278-.274765,1.7227993-.0294418.1664047-.0686951.3425999-.0981369.5285864-.0392532.2447157-.0981293.5677414-.1962585.9299154-.1570206.5775251-.2944031.7928762-.3925323.9103422,0,0-.0785141.1076756-.1962662.2055597-.4612274.4209108-2.0804214,1.3997726-2.3551941,1.0767469-.1962662-.2349253.6771164-1.2333679,1.7958374-3.602212.3630905-.7635117.5299149-1.2137871.3434601-1.448719-.2453308-.3132353-.9420776-.0097904-2.0902328.1664047-1.0009537.156621-1.8448944.1370401-2.3944473.0978842.5593567-.2349243,1.2659149-.5383768,2.07061-.9397058.4808502-.2349253,1.5799408-.7733021,2.8066025-1.5368137.9126434-.557951,2.6495972-1.634697,4.5631943-3.4553814.1766357-.1761951,1.4131165-1.3606167,2.728096-3.1323547.7850647-1.0571728,1.0009537-1.5270214,1.1383514-1.9968796.3434601-1.1452656.2355118-2.3101139.1864548-2.8582745-.0392609-.4111195-.0981369-.7439365-.1472015-.9788609.1668243.1957684.3729019.4404831.5789795.7537193.1177597.1761951.3434601.5090046.5593567.9788628.3925323.8613949.3336487,1.4585018.4612274,1.4682922.1373825,0,.2649536-.6656265.3140259-1.1159019.0686951-.6851997,0-1.252943-.0686951-1.5563869-.1177597-.636261-.3140259-1.0669556-.5986099-1.7032185-.3042068-.6754169-.5789795-1.1354828-1.0009537-1.8402557-.2551498-.4307022-.5789795-.9592896-1.0402069-1.6249161-.5299225-.7537193-.9813309-1.2920952-1.2757339-1.6444893-.6476822-.7733002-1.1972275-1.3312492-1.6290131-1.7717361-.3140259-.3230247-.5397339-.5383759-.9813309-.9690704-.2060776-.1957703-.8046875-.7830925-1.6388245-1.5563889-.4023438-.3719635-.7065582-.6558342-1.1481552-1.0473824,0,0-.5397339-.4796371-1.0500183-.9005508-1.776207-1.4780807-5.3286285-3.5141106-5.3286285-3.5141106-1.0598373-.6068954-1.2757339-.7047806-4.0823288-2.2415924-1.6093826-.8809776-2.9145584-1.6053352-3.7584991-2.0653992h-2.8066101c.0490723-.1761971.0981369-.3523903.1472015-.5383797-.3140259.0685234-.7654343.1664047-1.3051682.2642899-.6476822.117466-1.1285324.1859894-1.9332275.3034477-.7359924.1076736-1.1285324.15662-1.6780701.2251396-.7556229.0880928-1.393486.1370392-1.8939667.1664047.6967392-.4600677,1.3051682-.7928772,1.7860184-1.0278091.7654343-.3817558,1.5995636-.7928734,2.7477264-1.0473785.5887985-.1272507.6280518-.0783119,1.0892792-.2251434.8341293-.2545052,1.4621811-.6656265,1.8743439-.9299164.5495453-.3523903.8243179-.5383759,1.0696487-.7537193.2747726-.2545052.4317856-.4404869.726181-.5285873.2453308-.0685196.3238449,0,.7065582-.1076736.0490723-.0097923.1079483-.0293655.1373901,0,.058876.0587273-.0686951.2545052-.2355194.5383759-.441597.7537193-.3729019.7537193-.5201035.8711853-.2551498.2153511-.4906616.2153511-.5593567.4502754-.0294418.0978851-.0196228.1859894,0,.2447166.1668243-.0293655.4121552-.0783119.7065582-.1761971.5986099-.1957664,1.0304031-.4404831,1.7271423-.9005508.8537598-.5481606,1.4818115-.998436,1.6192017-1.0865364.667305-.4698563,1.1579666-.8222389,1.7958374-1.3312531.4612198-.3719635.893013-.7145729,1.4327393-1.2333679.5593567-.5383759.9224548-.9690704,1.5308762-1.673851.4906616-.5677414.893013-1.0473824,1.4032974-1.7423744.4612274-.636261.8733826-1.1942139,1.3051758-2.0066681.2747726-.5187988.6182327-1.2431526.9028244-2.1632843.1373825.8222389.0686874,1.4584999-.0196304,1.8892021-.0686874.3328094-.1471939.4992218-.2355118.9103432-.1570206.6851997-.1864548,1.272522-.1864548,1.6542778.1275711-.0783119.3140259-.2153511.5201035-.4013367.5986099-.5677414.7458115-1.1159019,1.2855377-2.1241302.3925323-.7243538.3827209-.5481567.667305-1.1061096.3827209-.7537193.5201035-1.2725258.8537598-2.3492699.4317932-1.4193497.5789871-1.5955429.7556229-2.329689.1373901-.5873184.225708-1.0865402.2649536-1.4291382.0392609-1.0082321.0686951-2.0458221.0785141-3.1127853.0098114-1.2039948,0-2.3688431-.0294418-3.4945374,0-.5481644.0196228-1.0963211.0294418-1.6444855-.1275711-.2153549-.2453384-.4404907-.3729095-.655838.2355194.0391541.5887985.0880966,1.0205917.1762009.8537598.1566162,1.4719925.3230209,1.619194.362175,1.4425583.362175,3.5229721.2838669,5.1912384.2153473,1.5308762-.0587311,2.2963104-.0880966,3.2874603-.2838669,1.2070389-.2349319,2.0804214-.5579529,3.3070831-1.0180206,1.1874084-.4404831,2.1491165-.8026657,3.3659668-1.4585037,1.6388245-.8907623,2.7575378-1.7913208,3.7094269-2.564621,1.4425583-1.1648407,2.4337082-2.1926498,2.7967911-2.5841904,1.0500259-1.1159058,1.7565842-2.0360336,2.394455-2.8778534.6476822-.8613968,1.2462845-1.654274,1.9234009-2.7995453.3434677-.5873184.7065659-1.311676,1.4425583-2.7603912.5789795-1.1452637.8635712-1.7325821,1.1089172-2.3394775.2355194-.6068954.5397339-1.4682922.7948761-2.5254669.1177521-.4894257.274765-1.1354752.3729095-1.9968719.0981293-.89077.0981293-1.6640701.0785065-2.2416-.500473.0978851-1.2561035.2447205-2.1785583.4404907-2.07061.4502792-2.3748169.5873184-3.5131683.8222427-1.8743439.3719711-3.3561478.4404907-4.5435562.4992218-.4219742.019577-1.4818115.019577-3.5916748.019577-3.2776413,0-3.5327911-.0097885-4.2982254.0391541-.893013.0587311-2.1196823.1468277-3.7094269.4796448-1.2953568.2740784-2.2668762.5971069-3.0126877.8418198-.8832016.2936554-1.6290131.5481644-2.5808945.9984436-1.0107727.4796371-1.72715.9494934-2.1785583,1.2431488-1.8056488,1.1746368-3.0028687,2.3492737-3.7683029,3.1029968-.9028244.8907623-1.4131241,1.5172348-1.5897598,1.7423706-.5004807.6264725-.8832016,1.1942139-1.1677856,1.6444931,0-.3230286,0-.7537231.0981293-1.2431564.2158966-1.1452637.7163773-1.967514,1.0892792-2.564621.2747726-.4404831.5397339-.7830887.7360001-1.018013-.451416-1.2529449-.9028244-2.5058899-1.3640518-3.7588272-.3336487.2349243-.6574936.4698486-.9911499.7047729.2355194.616684.4808502,1.2235794.7163773,1.8402634l.0981293,1.5172348c-.3630905-.6656265-.9224472-1.7130051-1.5897522-3.0246811-1.0500259-2.0458221-1.1874161-2.4177933-1.72715-3.200882-1.0598373-1.5270233-2.001915-2.2220154-1.8841476-2.3786316.1471939-.1957779,1.6290054.7635117,2.3355637,1.2235718.7163696.4600677,1.2659149.910347,1.6093826,1.2235794-.2845917-.4209061-.7654419-1.0473785-1.4916229-1.673851-.8537598-.7439346-1.4327393-.9397049-2.6201477-1.7815323-.451416-.3132324-1.108902-.8026657-1.8645325-1.4780807.1864548,0,.5201035-.0391541.8832016-.2055588.274765-.1272507.6771164-.3230209.657486-.4894333-.0294418-.2545013-1.0009537-.362175-3.5033493-.5090027-1.2953568-.0783081-2.3650131-.1272507-3.0813751-.1566238.1766357-.2153473.3729019-.4404831.5887909-.6656265.9028244-.9005508,1.8743515-1.4291382,2.6397858-1.7423706-.9911499-.9690704-1.9135895-1.673851-2.6397858-2.1534958-2.3748169-1.5955429-4.4650574-2.1926498-5.0342178-2.3394775-.7065659-.1859894-1.3149796-.293663-1.7467728-.3621826-.2453308-1.2823105-.6476822-2.1045532-.9224548-2.564621-.2060776-.342598-.5887909-.9103394-.657486-1.018013-.2060776-.3132324-.3925323-.5677414-.7654343-1.0767517-.1570206-.2251358-.3630981-.4894257-.667305-.7928772-.1962662-.1957703-.4612274-.4502716-.5495453-.381752-.0686951.0391541-.0196228.2251358.058876.6068954.0785065.3328094.1570206.5971069.1864548.6949921.1079483.3328094.1962662.5579453.2355194.675415.225708.6362534.3140259,1.1844177.3729019,1.5955429.0785065.5481644.1079483.9788589.1079483,1.1844254.0196228.4992142,0,.9299164-.0392532,1.2823029-.1079483-.1664047-.2649612-.4111176-.4317932-.7243576-.4121552-.7733002-.5102844-1.1942062-.7359924-1.693428-.1570206-.3523865-.5201035-.8124542-1.2462921-1.7521667-.0883102-.1076736-.6967392-.8907623-1.5995636-1.8206787-.6378632-.655838-.8439484-.7733002-.9420776-.7145691-.1373825.0880966,0,.5677414.1079483.9788589.1570129.5775299.3042068.8222427.5397339,1.3899841.1275711.3132401.3434677.8516083.5004807,1.4976578.0883179.3719711.1864548.89077.2060776,1.5368118-.2944031-.3230209-.6869278-.7439346-1.1874084-1.1942062-.1472015-.1272507-.7752533-.6949921-1.7369537-1.3704071-.7556152-.5187988-1.3444214-.8516083-1.9626617-1.1942139-.1668243-.0880966-.951889-.4796448-2.502388-1.2529449,0,0-.4514122-.2251358-1.7271423-.7635117-.8243179-.3523865-1.0696487-.4404831-1.1285324-.3523865-.1177559.1664047.5691757.9201279.9715195,1.3508301.5397301.5775299.696743.636261,1.0892792,1.1452637.3434639.4502792.5593567.8320389.637867.9788666.2551422.4796371.4023438.9201279.5004768,1.2529449-1.2168541-.0587387-2.4337006-.1272583-3.6505508-.1859894-1.0402145,0-1.9234085.0881042-2.6103401.1664124-1.0598412.1370392-1.8645325.3132324-2.5318336.4698486-1.0402107.2349319-1.8252754.4796448-2.1687393.5873184-.8341293.2545013-1.5799446.5285873-2.2374344.7928772-.3336525.1370468-.853756.3426056-1.5308762.6656265-.4023438.1957779-1.3836746.675415-2.6005287,1.4389267-.1373825.0880966-.5102921.3230286-1.4327393.9690781-1.560318,1.0865326-2.3453827,1.634697-3.0715675,2.2318039-.5887985.4894333-1.3149834,1.1550598-2.6103401,2.6625061-2.1393013,2.4863052-3.4248466,3.9741745-4.6515083,6.225563-.4612236.8418198-1.9921017,3.7784042-2.7182865,7.9287796-.2943993,1.7032166-.3238392,3.8762894-.3925323,8.222435-.0883198,5.5207825.1570129,5.7165527-.3336525,6.9988632-.7065582,1.8500519-1.8547153,3.1519394-2.9047394,6.0493698-.1864548.5090103-.4906654,1.4095612-.608427,2.6135559-.1079464,1.0082321-.0392532,1.8598404.0294418,2.4471588.0981331-.2838745.284586-.7145691.6084251-1.1550598.1668262-.2349243.7752514-1.0473785,1.0598373-.9299164.3042126.1272507-.0490665,1.1648407,0,2.7114487.0392532,1.2137909.3042126,2.1241226.4514103,2.6135559.5888004,2.0066719,1.6977024,3.3085518,2.5023937,4.2286835,1.1874084,1.3606186,2.3061256,2.1339188,3.562233,3.0051041,1.2659149.8711891,2.3061256,1.4291382,3.2383881,1.9185715,1.4327431.7537193,2.6986618,1.3018875,3.6603622,1.6836433v-1.7521629c.3729095.4992218.9126396,1.1354828,1.6388206,1.8206825,1.3247986,1.2431526,2.5416489,1.92836,3.3070869,2.3492699.6476746.3621826,1.6977005.9201317,3.179512,1.3508263.7359962.2153511,1.364048.3328094,1.7958374.4013367,1.3149834.2055588,2.3061256.1566238,3.6309242.0978851,1.0009575-.0489464,1.7467651-.0783119,2.7575417-.2642899,1.393486-.2545052,2.4336967-.6264687,2.8556709-.7928734.8635712-.3328094,1.9920998-.8516159,3.20895-1.6836472-.0981293.2447166-.2649574.6068993-.5495453.9886551-.6280518.8809776-1.4229317,1.3410416-3.5327873,2.2807503-.7850647.3523903-1.7271423.7537193-2.7967911,1.1942101-1.9822884.0097923-3.9547615.019577-5.9370499.0293655-.412159.3915482-1.0205879,1.0082283-1.6388206,1.8500481-1.1383438,1.5661774-1.5014381,2.7897568-1.7663956,2.7114449-.2355232-.0685196-.1962662-1.2040024.0686913-2.1143456.3630905-1.2823067,1.373867-1.6934319,1.2168541-2.1437111-.0785103-.2251396-.412159-.4404831-1.5406914-.4306984-.4219704.3817558-1.0303955.9299126-1.7663918,1.5857582-1.2757301,1.1452675-1.9234085,1.7325821-2.2178078,2.0164528-.8145065.7928772-.7752533.8222389-2.4435158,2.5450401-1.2462883,1.2920952-1.1481552,1.1452637-1.5406876,1.5857582-.3529854.3961143-.7530212.9164696-.9136696,1.1247177-.1684952.2184219-.3595123.4631462-.741539.9525948-.7735596.9910698-.849514,1.0671234-.9206505,1.2889099-.1199608.3740044-.0526237.6211891.1029053,1.4595604.1441917.777256.2468224,1.5616875.3788452,2.3411026.1304169.7699356.2427673,1.4567585.2057457,2.3924885-.0019646.0496922-.0025597.07901-.0056076.1215611-.0392532.5481606-.1177559,1.4682941-.7359962,2.3786354-.6280518.9299164-1.5210609,1.3312531-1.9920998,1.5563869-.5593605.2545071-1.0107689.3621826-1.1874084.4013367-1.305172.2838707-5.2991867,1.1159019-10.7161331,2.2122307.0981331.3034439.1864529.6558361.2453327,1.0473824.0490646.2740803.0686932.5285854.0883198.7733002-1.0303974-1.2823067-2.0411682-2.1730728-2.7771664-2.7505989-1.8350887-1.4389286-2.9439926-1.6738529-3.5720444-1.7423725-1.0598364-.1076756-1.4523697.2055607-1.5799417.3328094-.6084251.5677414-.4514122,1.6053333-.4317846,1.7619534.1079454.6362629.6476774,1.292099,1.746769,2.5841961.3434658.4111195.5201035.6166801.6771183.7733021.8537579.8516121,1.8056488,1.3508263,2.6005249,1.6444874-.3434658.0587292-.8831959.1076756-1.4916229-.039156-1.3149834-.3034439-2.129488-1.272522-2.5220194-1.7619534-.7850647-.9592876-.5789852-1.2725239-1.4229288-2.1437111-.4906654-.5090046-.9518909-.8026657-1.5799427-1.2137852-.5201044-.3328094-1.1775961-.6949921-1.9921007-.9886532-1.0696507-.3817558-1.4131155-.2642899-1.5799427-.1859856-.3042126.1468296-.5789852.4600658-.6574917.8222389-.0883198.4013386.0686932.7537212.4415989,1.3508282.8046913,1.3018875,1.3836765,1.8696289,1.3836765,1.8696289,1.7075148,1.6738529,3.464097,2.6918697,3.9155092,2.9463768,1.334609.7537212,2.0117283,1.1452675,3.0813789,1.4291382,1.8056488.4894295,3.2972717.3132343,4.4846802.1664047,1.3738632-.1761971,2.3257561-.5090065,3.9351368-1.0669575,1.5603161-.5383759,2.8262348-1.0865364,3.719244-1.4976559-.3630924.4307003-.7752514.8907681-1.2462902,1.3508263-.4023457.4013367-.7948761.7635117-1.177597,1.076746.3140259.0685196.7850647.1468315,1.3542347.2055607,2.0117283.1859856,3.5720444-.1957703,4.994976-.557951,1.0205841-.2642899,2.3846359-.6851997,3.9351387-1.3997726.0883179-2.5058842.4317856-4.5810738.7556267-6.1276779.7163696-3.3183422,1.6093788-5.0705051,1.8841515-5.5795097.2649612-.5090046.5201035-.9103413.696743-1.1942139-.0981293-1.1354828-.0883179-2.5744019.2355232-4.1895256.4612236-2.3101158,1.3444214-3.895874,1.5897522-4.3265686.6869316-1.1942139,1.4425583-2.0751915,2.0215454-2.6527138-.3336525.7439346-.7752533,1.7815285-1.2266655,3.0638351-.480854,1.3606148-.7556229,2.153492-.9224472,3.1617241-.1570129.9299164-.2747726,2.3688469.0686913,4.1895294.0883179-.4013367.255146-.9592896.5986137-1.5270233.6476784-1.0865364,1.5406876-1.634697,1.9822884-1.8696289-.1373863.3132362-.3434639.7830925-.5986137,1.3606186-.6476784,1.5074463-.7359962,1.8011017-.7948799,2.0066681-.1962662.7145729-.1962662,1.2627335-.1962662,2.1437111,0,.8418217.0588799,2.0164528.3336525,3.4358063-.255146-.2740803-.5299187-.6264706-.7948799-1.0571728-.5495453-.9005508-.7850647-1.7717361-.8930092-2.3786335-.2158966.4698563-.4416008.9299145-.6574898,1.3997726-.706562,1.9283581-1.1481552,3.5826378-1.4229317,4.8257885-.4317856,1.8989944-.6182404,3.3672886-.853756,5.1879711-.255146,1.9870892-.3729057,3.5043278-.4219742,4.2286835-.0588799.9397068-.0981293,1.7619543-.1177559,2.3982086.3729057-.7830925.7458076-1.5759678,1.1187134-2.3590603-.0392532.3034449-.0981293.8026667-.0981293,1.4193468,0,.6949911.0196266,2.5841942,1.1089058,4.5321274.186451.3230267.4808502.8124571.9322624,1.3508272l-4.0921478-1.8696299c-.3630905-1.2333679-.7065582-2.8974304-.696743-4.855154,0-.9005518.0785103-1.7227993.186451-2.447154-.2060776.0880928-.5201035.2251415-.9126358.3621807-.7163734.2447147-1.373867.4013367-2.924366.6264706-1.3051701.1957703-1.9626617.2936621-2.541647.3328094-.3925323.0293655-1.1972237.0195742-2.8262329,0-.9126377-.0097904-1.2168503-.0195732-1.6486359-.1370392-.6476784-.1761961-.7556267-.3719654-1.2757301-.4209118-.5887985-.0587292-.8831978.1468315-1.589756.3230267-.4808521.1272497-1.0009575.1468306-2.0215416.1957693-1.5995674.0685205-2.5023918.117466-3.5720425-.0489464-1.5406895-.2349243-2.6005259-.7635107-4.0332699-1.4780836-1.0303974-.5090046-2.0804214-1.0278072-3.2874584-2.0262432-1.1579704-.9592876-1.9528484-1.9381504-2.4533272-2.6527157-.3238387-.1664047-.7458115-.4013367-1.2070365-.7635098-.3238392-.2545071-1.3247962-1.0767479-1.9724746-2.3394794-.4219723-.8222408-.4219723-1.3018894-.7163715-3.4162273,0,0-.1962664-1.4291363-.6967449-4.3167839-.2943993-1.7325821-.5887985-3.1421471-.8537579-4.4636078-.2943993-1.448719-.4710386-2.926796-.8341311-4.3657227-.0392531-.1664047-.1766394-.6949921-.2060794-1.409565-.0294399-.675415-.0588799-1.3214607.255146-2.0066681.3140259-.6949921.8341312-1.0963287,1.2070367-1.3801994.3925321-.3034439.7654378-.4992218,1.0402102-.6166801-.1373861-1.810894-.3140256-3.2693939-.4415987-4.2678375-.1766396-1.3801994-.284586-1.8989944-.3434658-3.0344734-.0785065-1.3704071-.1373863-2.3492699.1373863-3.602211.2355194-1.0669556.5887983-1.8402557.8537576-2.4079971.6280518-1.3410454,1.3051696-2.2318039,1.4818096-2.4569473.2747726-.3523903.9028244-1.1159019,1.8743415-1.9087791.3434658-.2838669,1.4719963-1.1648407,3.1795111-1.8598404,1.5210629-.6264648,2.7771664-.7928772,3.5033503-.8809738,1.050024-.1370392,2.3061275-.2838745,3.9155102.019577,1.5603161.2936554,2.7084732.8809738,3.2874584,1.2137909.5299187.3034515,1.4916229.9201279,2.4827671,1.9577217.1766396.1859894.9617043,1.0278091,1.717329,2.3590622.4808521.8613968.7359982,1.5270233,1.108902,2.5548286.1079483.2838745.5102921,1.3899841,1.0402107,3.4162292.2649593.998436.5887985,2.329689.9028244,3.9154472.4514103-.1566238,1.3247967-.3915482,2.384634-.2153511.4710388.0783081,1.1874084.1957703,1.8350868.7439346.6182404.5187988.8341293,1.1550598,1.2266655,2.3394814.1570091.4698563.3238373,1.03759.6280479,2.603775.3238411,1.6249161.2747726,1.6640625.5789871,3.2693977,0,0,.0785065.3915443.6476784,3.12257.0588799.0685196.1079445.1468315.1668243.2153511.2845879-.4307022.7359962-1.0865364,1.3444214-1.8402596.853756-1.0571709,1.2462921-1.3508263,3.4542847-3.5434799,1.5995712-1.5857582,1.8939667-1.92836,2.737915-2.6037788.7556229-.6068954,1.4229279-1.0473785,1.8939667-1.3508263-.5102921-.2838707-1.0892792-.6558342-1.6878891-1.1256905-.6771164-.5383797-1.2168541-1.0767479-1.6486359-1.5661774-.4317856-.0293655-1.079464-.0978851-1.8547134-.2642899-1.7958374-.3915482-3.0421257-1.0669556-4.5533752-1.9087791-.9617043-.5383759-2.1098633-1.1648483-3.5033493-2.2611694-.3925343-.3132324-1.972477-1.5661774-3.6309261-3.5630569-.951889-1.155056-1.2953568-1.7815285-1.5210609-2.3003235-.4317875-.9886513-.5789852-1.8989944-.6280518-2.5156746.0785065,1.1844215-.0392532,1.4878693-.1668262,1.5172386-.3729057.1076775-1.3247967-1.8794136-1.7762089-3.7784081-.1766396-.7439346-.412159-1.8206787-.2943974-3.2106628.0490646-.5285873.1668262-1.3899841,1.4327412-4.3461456,1.1874104-2.7701797,1.2757301-2.4863129,1.6878891-3.7784119.6378632-1.9968796.7458115-3.7098846.8046913-4.6495895.0686913-1.2529449.0294399-2.3101196-.0392551-3.0834198-1.0990906.0978851-2.6594067.1174622-4.4748669-.2153473-1.1579704-.2153549-3.7290573-.8222427-6.4571571-2.6918716-2.1491146-1.4780807-3.4052172-3.0638351-4.3472948-4.258049-1.8645287-2.3786316-2.796793-4.5027618-3.7094297-6.5779495-1.207037-2.7408142-1.7762089-4.89431-2.0313544-5.9319-.0392532-.1566238-.5102921-2.1241302-.667305-4.3657227-.0490665-.7439423-.0196266-1.2823105.0392532-2.3492737.0490665-.8418198.1079464-1.1746292.3042126-1.5466003.0785065-.1468277.4710388-.8809738,1.2364764-1.0767517.0528259-.0127182.1056519-.0227432.1635609-.0280533.6567192-.0602188,1.1901684.2187271,1.485076.3706589.4226875.2177658,1.0197344.4761658,1.8644743.7145691Z"/>
      </g>
      <path id="left_ear" class="st1" d="M30.9548103,26.4253938c.1177605.4992198-.0981334.9397065-.2747733,1.3214639,0,0-.7065574,1.5466017-1.5210619,4.1405854-.3532797,1.1159038-.5004789,2.006668-.5986123,2.6233483-.1962669,1.2137904-.2551462,2.2709593-.2649597,3.0736258-.0490658-.0391554-.1177605-.1076754-.1766398-.1957731-.2158921-.3034485-.2355191-.626471-.2453327-.6949911-.0196271-.2153508-.3336526-.9397065-.9420766-2.3982124-.1471992-.3621779-1.0009578-2.3786347-1.5995683-3.543479-1.8252757-3.5239032-4.8477743-5.7948625-6.2118234-6.8226668-.843945-.6362599-.6771187-.4306998-3.6014838-2.4569436-1.1972237-.832033-2.2374338-1.5661794-3.5229775-2.5548302-.6084249-.4698533-1.0990903-.8613976-1.4327429-1.1354797.1668263.4209109.4612257,1.0375931.9518911,1.673853.4415986.5677398.7752512.8026665,2.5710864,2.1534969,2.060794,1.5466017,1.9528479,1.4780817,2.3944466,1.7913172,1.3247969.9494954,1.4131168.9397065,1.9135957,1.389984.8341315.7439353.735998.900553,1.8252757,1.9675126.6378646.626471.7065574.6068952,1.6977017,1.5661794.6476781.626471.9813307.9886507,1.3247969,1.4095617.1766398.2153489.5887988.763513.9126379,1.5661794.1177605.2936578.2747733.6852041.1668263.763513-.0981334.0783089-.3729049-.2055601-1.256104-.9690731-1.1775976-1.0278042-1.3934897-1.1550573-1.5897566-1.2431551-.3140255-.1566178-.4906654-.1859843-.8145044-.4111221-.3336526-.2349266-.4415996-.4111221-.7948774-.7537241-.1962669-.1859843-.5004789-.4600644-.9126379-.7537241.1570128.4894309.3630932.8516107.5102924,1.0865373.3238391.5090086.5495447.6460487,1.5505025,1.7032195.4415996.4600644.3925319.4306998.8145044.8711865.3532797.3621797.6378646.6460487,1.2070363,1.2039997.5102924.5090086.7752522.7635111.9715172.9397065.5102924.4404886.7556251.6558357.843945.6949911.1766398.0880977.4023454.1664047.4415996.3621779.0196271.0978847,0,.2251378-.0785064.2936578-.1766398.1272531-.4808518-.1859824-1.04021-.4600663-.6182375-.3034485-1.1972228-.3817555-1.864528-.479644-.4023454-.0587331-.412159-.009787-.6771187-.06852-.5887988-.1174624-1.0205849-.4013332-1.3051698-.616684.0981334.1957731.2551462.479644.5004789.7830888.2257056.2838708.4612248.479644,1.2266634,1.0180173.716371.5090086.7065574.4698533,1.256104.8711865.4906654.3523909.5495447.4209109,1.2364769.9201288.4612248.3328132.6869323.4894309.9617037.6460487.2158921.1272531.4710383.2838708.7948774.4209109.6378646.2838708.9126379.1468308,1.4425555.4209109.2551462.1370401.4415996.2936578.5495447.3915463v1.9577238c-.5986123.009787-1.4327438,0-2.4336997-.0880977-1.452369-.1272531-2.9439922-.2545025-4.7103886-.9397065-1.5897566-.616684-2.6790324-1.3997728-3.2874583-1.8402614-.3140255-.2251378-1.5308754-1.1256927-2.8752993-2.6918702-1.4916232-1.732586-2.3159402-3.2987636-2.9636192-4.5614963-.7752512-1.5172352-1.2757301-2.9267969-2.276687-5.7361313-.3630923-1.0278042-.5789853-1.6836418-.7752512-2.4863101-.0686933-.2838708-.4415986-1.8108949-.5299186-3.9350253-.098133-2.2807482.2551462-2.5744069.4317856-2.6527158.1570128-.06852.314026-.0489433.726185.0978866,1.0500236.3719676,1.8056487.8418209,1.9822885.9494963.8046909.4992198.5789853.2153489,2.6594063,1.2431551,1.344423.6656264,1.2266634.6754152,1.8841551.9494954.2845859.1174642.7556242.3132355,2.7280992.8516107,1.7565829.4796421,1.7467694.4306998,2.600526.6949911.5986123.1859843,1.5406889.4796421,2.6986595.9886507.8930108.3915444,1.6584494.8418218,3.1696978,1.7227972.2747733.1566178.9813307.6362599,2.3944475,1.5955441.6771187.4600644,1.12853.7830888,1.2659175,1.3312528l-.0294406.0391647Z"/>
      <path class="st0" d="M10.5529446,17.7722544c-.196266.7733018-.4023454,1.9381461-.3434661,3.3574966.0196271.4306998.1471992,1.9773015,1.2757301,4.9138872.6673052,1.732586,1.5701295,4.091643,3.6309235,6.4996424,1.3738626,1.6053329,2.6986586,2.5841948,3.8566291,3.4358036,1.5308754,1.1256927,2.600526,1.9479368,4.2197214,2.5548302,1.0794642.4111202,2.8066065.8907642,5.0734799.7928795v-.2055601c0-.0783107.0196271-.1174624,0-.1664047s-.0490658-.06852-.0981334-.1076754c-.2257056-.1761954-.2060786-.1566178-.2257056-.1664047-.2551462-.1566178-.5102924-.2349285-.5102924-.2349285-.3925319-.1272531-.7065574-.2055601-.8341315-.2447155-.4612248-.1272531-.7850638-.3132355-1.1677841-.5285863-.2551462-.1468308-.4906654-.3132355-.9813307-.6558357-.2551462-.1761954-.520106-.3817555-.6574917-.479644-.0490658-.0391554-.0588793-.0391554-.0588793-.0489423-.3336526-.2447155-.3925319-.3328132-.6182375-.4992179-.0785064-.0587331-.0294406-.0195777-.304212-.2055601-.1668263-.1076754-.2257056-.1566178-.3925319-.2642932-.1275722-.0880977-.2060786-.1370401-.2747733-.1859824-.5593582-.3719686-.843945-.5677417-1.0892777-.8124572-.1177605-.1174624-.2158921-.2349285-.2257056-.2447155-.0588793-.06852-.1570128-.1859824-.2649597-.3426002-.0785064-.1076754-.1668263-.2642932-.2551462-.4502756.0588793.0489423.1471992.1174624.2551462.1859824.0785064.0489423.1373857.0783107.2158921.1174624.2845868.1272531.520106.2447155.8341315.3034485.2551462.0489423.2551462,0,.7948774.0783107.1570128.0195777.2747733.0391554.2943985.0489423.2158921.0391554.4514112.0783107.7458116.1664047.1471992.0391554.5102924.1468308.8145044.3132355.1177605.06852.2649597.1370401.3925319.2251378,0,0,.0588793.0391554.1373857.0880977.0883199.0489423.1570128.0783107.1766398.0880977.1864534.0783107.4514112.0783107.5102924.0783107-.0196271-.0880977-.0588793-.2153508-.1471992-.3523909-.0196271-.0293647-.0981334-.1468308-.2943985-.3034485-.1766398-.1370401-.1864534-.0978847-.3925319-.2447155-.1668263-.1174624-.4612248-.3523909-.520106-.4209109,0,0-.0490658-.0587331-.107947-.0880977h0c-.0196271-.009787-.0785064-.0587331-.7752522-.7341464-.1864534-.1761954-.2649597-.2545025-.5593582-.5481621-.0981334-.0978866-.1275722-.1272512-.1962669-.1859843l-.107947-.1076754c-.0294406-.0293665-.0490658-.0587312-.0588793-.0587312-.0883199-.0880977-.1962669-.1957731-.2355191-.2447155-.107947-.1076754-.1275722-.1370401-.3238391-.3523909-.0785064-.0880977-.1766398-.1957731-.3140255-.342602-.304212-.3230244-.4415996-.4502756-.735998-.7537241-.3434661-.3523909-.2649597-.274082-.4219725-.4306998,0,0-.4710383-.4796421-.6771187-.7439353-.0294406-.0391554-.0588793-.0783089-.0588793-.0783089,0,0-.0490658-.06852-.0981334-.1370401-.2158921-.3328132-.3925319-.7830888-.3925319-.7830888-.0294406-.06852-.0588793-.1566178-.107947-.274082.1177605.0783089.2649597.1859843.412159.3034467.2060786.1664066.3532797.3034467.3925319.342602.3238391.3034467.304212.3523909.6084259.6166822.1766398.1566178.3140255.2545043.4514112.3328132.0490658.0293665.1373857.06852.2355191.1174642.1275722.0587312.1373857.0489423.2257056.0978866.2158921.0978866.3827184.2153489.4906654.2838708.0686929.0489423.1275722.0978866.1471992.1076754.0686929.0489423.1177605.0978866.1471992.1174642.4808518.4013332.9224514.8026665.9224514.8026665.4415996.3915444.5004789.4306998.6084259.5187975.0294406.0293665.0686929.0587312.107947.0880977.1471992.1370401.1766398.1761954.2551462.2251378.0196271.0097888.0392541.0195777.0686929.0391554.0686929.0391554.107947.0783089.1275722.0880977.0981334.06852.1766398.1272512.2355191.1566178-.0294406-.1566178-.0588793-.2936578-.0883199-.4111221-.0490658-.1566178-.0785064-.2838708-.1275722-.3817555-.1275722-.2936578-.0883199-.2153489-.1570128-.3915444,0,0-.1570128-.3523909-.3336526-.6558375-.3532797-.6362599-1.256104-1.527024-1.4916232-1.7619507-.1570128-.1566178-.2747733-.2642932-.4514112-.4404886-.520106-.4894309-.7752522-.7341464-1.0205849-.9494954-.1177605-.0978866-.2747733-.2251378-.4808518-.4404886-.0785064-.06852-.1471992-.1566178-.2649597-.2838708-.6182375-.7047799-.9126379-1.174635-1.7173288-1.8402595-.1864534-.1566178-.2355191-.1859843-.8537586-.626471-1.4621826-1.0571708-1.3346094-.9984396-3.0617517-2.2513816-.5102915-.3719667-1.0107704-.763513-1.5210628-1.1354797-.0883199-.06852-.3336526-.2447155-.6378646-.5090086-.1373866-.1174642-.2747723-.2447155-.4219725-.3915444-.3140255-.3230244-.4906654-.6166822-.6869313-.9397065-.1570128-.2545043-.3532787-.6068952-.5397321-1.0473819l.0196336-.0000093Z"/>
      <path id="body_mark_2" d="M51.2094777,106.9759366c.2060786-1.1354834.5593582-2.5254655,1.1775976-4.042697.4612266-1.115902.9617037-2.0653992,1.4425574-2.8484917.0981316.6949911.1962669,1.3899821.2943985,2.0849732.5691736-.7341464,1.1579706-1.4682928,1.7369558-2.21223.6869323-.8711865,1.3738645-1.722799,2.0706084-2.5744041-.0490658.4992217-.0588812,1.1746313.0883199,1.9381498.0883199.4404849.2060786.8320311.3238409,1.1550573.5397311-.5481603,1.0794623-1.1061113,1.6191972-1.6934344,1.5995701-1.7325823,3.0225004-3.4455906,4.2786026-5.119451.0294387.7047818-.0098117,1.4682928-.1766398,2.2709593-.8635721,4.2678385-4.4748695,6.6171085-5.6033975,7.2925182-.5691736.0097907-1.1383435.019574-1.7075171.0293647-1.0303965.6754171-1.77621,1.3018881-2.276687,1.7521637-.4906654.4502756-.7556251.7439371-1.2659175,1.0865373-.7654368.5090049-1.5014348.7439371-2.0117272.8613958l.0098079.0195889Z"/>
      <path id="body_mark_1" d="M48.5893228,94.8967844c-.3532797.4307016-.824318,1.1061113-1.1972247,2.0066699-.5691736,1.3704082-.5986123,2.5548302-.6182394,3.2987673-.0196271.7341464-.0294387,1.9087777.4710383,3.2791859.2845868.7733018.6280511,1.3312528,1.0107694,1.9675145.3140255.5187956.5986123.9103419.9715191,1.2920974.1668244.1761954.3238409.3132355.4317842.401337-.235521-.4992217-.4219725-.9299158-.5593582-1.2725235-.127574-.2936616-.2551443-.6166803-.4121571-1.0375912-.1668244-.4502756-.2943985-.8516125-.3532797-1.0571726-.2649597-.8809772-.3238409-1.6346976-.4121571-2.8289103-.0686929-.9592879-.107947-1.4291375-.0785083-2.1437099.0098117-.2838708.0588812-1.115902.2845868-2.1730746.1472011-.6852003.3140255-1.2627327.4710383-1.7130083l-.0098117-.0195814Z"/>
      <g id="right_ear">
        <path class="st11" d="M96.3801298,45.9243248c-.0981316-.1566178-.2453327-.8516088,5.7211599-6.1766199,4.180471-3.7294652,6.2707027-5.5990913,8.5768284-6.7443579,1.1383472-.5677398,4.4552424-2.2318058,7.4679274-2.6625037.0294387,0,2.4140727-.342602,4.33748-1.0082284.6967439-.2447155,1.4033032-.5285863,1.4033032-.5285863.7556214-.3034467,1.2953563-.557951,1.8939686-.832033.6084277-.2838708,1.4033032-.6656264,2.3355644-1.1452685.0294387.5873175.0392466,1.4487152-.0883162,2.4667324-.745806,5.9710561-5.0931089,9.8767167-7.8408304,12.3434491-3.5327891,3.1715142-6.7809914,4.659381-8.1156018,5.2271227-1.8448991.7733018-4.6122514,1.8500484-8.302057,1.7130083-1.4229266-.0587331-2.6005279-.2740801-3.4150342-.479644-1.0794623.0978847-2.1491167.1859824-3.228579.2838708,1.5112502-.9788619,3.012685-1.9675108,4.5239352-2.9463727-.6673052.0391554-1.6977054.1174624-2.9538076.2838708-1.7369521.2251378-2.16874.3915463-2.3061257.1859824l-.0098154.0195777Z"/>
        <path d="M99.9816117,48.0092979c1.059839-.1761954,2.4533268-.4013332,4.1510323-.9494972,2.8654839-.9201288,4.808522-2.1730746,5.2599333-2.4667324,1.1579706-.7635111,2.0509776-1.5172352,2.6790362-2.0849769-1.0990931.2153508-2.2079941.4404886-3.3168952.6656264-1.0794623.2153508-2.1589246.4404886-3.228579.6656264,1.1775939-.8613995,2.3453798-1.7227953,3.5229737-2.5841948,1.4719961-1.174635,2.9341768-2.3492701,4.4061729-3.5239013-.2944022.0195777-.7556214.0587331-1.324795.1761954-1.3346104.2740801-2.1000472.7145687-3.964577,1.5661775-.5004808.2251378-1.2757329.5775287-2.2374329.9788619.7752522-.8320311,1.5603123-1.673853,2.3355644-2.5058878.264956-.3817555.6673052-.9103419,1.216848-1.4682928.7458134-.7537241,1.6682592-1.4487152,4.0332699-2.6135632.9715153-.479644,2.1491167-1.0571726,3.85663-1.7130083.5887969-.2251378.5201041-.1761954,1.9135919-.6656264,1.2659175-.4404886,1.9724769-.7047799,3.1991403-1.0767485h.0098154s3.5327891-1.0865373,5.2304946-2.7016591c.1275778-.1174642.2453327-.274082.2453327-.274082.0588774-.0783089.0883162-.1076754.107947-.1566178.0294387-.06852.0883162-.2153489.0392466-.4502756-.3925263.2055601-.9911386.5090086-1.7173288.8613976-1.324795.626471-2.6594054,1.2627327-4.4650578,1.8108949-1.000954.3034467-1.8547145.4992198-2.3257565.5971064-1.000954.2153489-1.3836799.2349266-2.119678.3719667-1.2953563.2447155-2.2178095.5873175-3.2482023.9592842-1.1285318.4111221-2.64959.9788619-4.4552424,2.0751862-1.3149796.8026665-2.2668716,1.5759683-3.1795095,2.3199017-.1373857.1076754-.7654368.6656264-2.0313543,1.7619507-.8930146.7830888-1.6093818,1.3997728-2.4042573,2.1143416-.5691736.5090086-.8635683.7635111-1.167786,1.0473819-.951892.8711865-1.6093818,1.5172352-1.9430381,1.8206837-.0294387.0293647-.107947.1076754-.215894.2055601-.0883162.0880977-.1177624.1272531-.1962632.2055601-.1275703.1370401-.2257094.2251378-.2845868.2838708-.2845868.2740801-.6476819.6754134-.7261826.7537241-.264956.2936578-.48085.5285863-.7163747.8516088-.4023492.548164-.6378665.8711865-.5495428,1.0473819.1472011.2642932.8930146.0783107,1.5406889-.0587331.8537604-.1761954,2.0902317-.3621779,3.6701748-.3817555-1.4818115.9690749-2.9538076,1.9283591-4.4356116,2.8974303.7163747-.0587331,1.68789-.1566178,2.8262298-.3426002l.0098229-.0195665Z"/>
      </g>
      <path class="st6" d="M83.1517883,99.1352582l.1177624,4.0818523c.7261826-.9005512,1.4523728-1.810893,2.1785554-2.7114442-.7654368-.4600663-1.5308735-.9103419-2.2963178-1.3704082Z"/>
    </g>
    <g id="keylock">
      <path class="st2" d="M5.7542375,81.6821487c1.4229298-.3230262,2.8458592-.6362617,4.258975-.9592879-.1275731-.5677417-.3140255-1.4193468-.5004789-2.4471547-.1766398-.9592879-.3238391-1.722799-.3925324-2.300324-.1471997-1.2333681-.421972-3.4358074.7556246-5.4620512.9911443-1.7032176,2.5318332-2.4569455,2.9734318-2.6625056.8635711-.401337,1.6388224-.5481603,2.1687409-.5971064.5102915-.0587293,1.2855437-.0783107,2.1687409.1664047,1.668263.469857,2.6692189,1.6249143,2.9734328,1.9968792.9813307,1.1746313,1.3149833,2.4471547,1.7762081,4.1895277.1373857.5187956.1962669.8516125.3336526,1.4585021.0883199.3915463.1570128.6362617.2158921.8613958.1275722.4992217.304212,1.2333681.5004789,2.1828653,1.2855427-.2642894,2.5710854-.5285863,3.85663-.7928757-.1766398-.8124572-.3630932-1.6053329-.5397311-2.3786347-.2060786-.8907679-.3729049-1.5955422-.5397311-2.2415946-.2355191-.9103419-.5986123-2.1828653-1.1579706-3.7392522-.1570128-.401337-.3925319-.9201326-.735998-1.4976575-.1864534-.3034448-.7556251-1.2627327-1.6878882-2.1045546-1.992102-1.810893-4.3374819-2.2024393-5.1323592-2.3296924-1.5014357-.2349285-2.7182866-.0880977-3.3954043.0293647-.3140255.0587331-1.8547154.3426002-3.62111,1.3606212-1.3836762.8026665-2.2374338,1.673853-2.4533268,1.8989945-.8733842.9103419-1.3934897,1.7619544-1.6191958,2.1632839-.2649593.469857-.7163714,1.2920974-1.0009573,2.4569455-.2453327,1.0082266-.2355194,1.7815284-.2257061,3.0246797.0098133.9299158.0785064,1.7619544.1962662,2.7897549.1471997,1.2431513.3925324,2.9170117.8145047,4.9138834l.0098112.0195889Z"/>
      <path class="st4" d="M6.7748214,103.8729462c0-.2055601-.0294401-1.3116714.7948778-2.1828653.0490667-.0489461.9126374-.9397065,2.1196742-.8711865.824318.0489461.9028243.4992217,2.276687.8124572.6771178.1566215,1.1187174.2545062,1.5897557.0587293.5986114-.2545062.5495456-.6949911,1.1677832-1.0865373.6378646-.401337,1.3346094-.3426002,2.0607949-.2740801.8930108.0783107,1.5406889.3719648,2.1098607.6362617.7458116.3426002,1.2659157.7047818,1.5701295.9299158.6967439.4992217,1.2266634,1.0082266,1.6191953,1.4291375,1.0696506-.2545062,2.1393013-.5187956,3.2187654-.7733018,2.8458587-.6656264,4.268789-.9984359,4.4748676-1.0375912,1.0500236-.1957694,4.376736-.7439371,5.1716115-1.6444883.3532797-.3915463.4612266-.8516125.4612266-.8516125.0785083-.3621816.0490658-.6558357.0294387-.7928757-.0981316-.7047818-.0588812-1.4193468-.1766398-2.1143453-.7850638-4.7964248-1.8449028-9.5439035-2.6103396-14.350119-.0294406-.1664047-.1864534-1.1942127-.843945-2.2709593-.5299195-.8711865-.9911443-1.1256927-1.12853-1.1942127-.7654386-.3817555-1.5308754-.1957694-1.8056487-.1174661-.6084259.1370401-1.2168499.2642894-1.8252757.401337-7.3011011,1.4878668-14.6022013,2.9659504-21.9033015,4.4538246-.6280515.2545062-.9715174.6166803-1.1383435.8222404-.7065581.8711865-.6574917,1.9870885-.6280516,2.770181,0,.1664047.0196266.3230262.0392533.469857.0785064.6949911.2158928,1.1942127.255146,1.3214621.2060795.7243557.353279,1.9283591.6182382,3.5434828.1962662,1.2040034.5495451,3.2889766,1.2561031,7.1359041l.3336526,2.3884254c.0686933.3817555.1864529.8418218.3925324,1.3508267.1668263.4111202.3532792.7439371.5299186,1.0180173l-.0294369.0195814Z"/>
      <path class="st3" d="M17.2063666,91.3141462c.1177605,1.6934344.2453327,3.396652.3630932,5.0900789.4219725.019574.9518901,0,1.5406889-.0587293.5691717-.0587293,1.3738626-.1957694,2.296314-.5187956.412159-.1468308.9028243-.3426002,1.4327438-.626471-.5397311-1.5759683-1.0794642-3.1519365-1.6290089-4.737688.2355191-.2153508.6084259-.6068971.824318-1.2040034.4808518-1.3116714-.0686929-2.8289103-1.1089029-3.6903061-.824318-.6852003-1.7663946-.7733018-2.0706084-.8026665-1.0696506-.088094-1.864528.2740801-2.0411678.3621816-.7752512.3817555-1.1972237.9201326-1.3149833,1.0767466-.1177596.1664047-.5299186.7537204-.6378646,1.6249143-.0392532.3034448-.107946.9788619.2453327,1.7032176.2551462.5285863.6182385.8418218.8439441,1.0473819.4612257.401337.9224505.6068971,1.236476.7243557l.0196252.0097832Z"/>
      <path d="M17.7951654,91.0694308c.107947,1.7619544.2257056,3.5336921.3336526,5.2956465.3729049.019574.8341315.019574,1.3542356-.0391554.5004789-.0587293,1.2168499-.1859862,2.0215408-.4992217.3630932-.1370401.7948774-.3328095,1.256104-.6068971-.4906654-1.5759683-.9813307-3.1421458-1.4621826-4.7181141.2060786-.2055601.5299195-.5971064.716371-1.184422.4219725-1.3018881-.0785064-2.8093363-1.0009578-3.6707321-.735998-.6852003-1.560316-.7830925-1.8252757-.8124572-.9420766-.0978847-1.6388224.2642894-1.7958352.3426002-.6476781.3523909-.9911443.8320311-1.148157,1.0571726-.1766398.2447155-.5397321.7830925-.6182385,1.585759-.0294397.2545062-.0883199.9788619.3042129,1.722799.2747723.5090049.6378646.8026665.8831973.9886526.3827184.2936616.735998.4600663.9911443.5481603l-.0098117-.0097907Z"/>
      <path class="st8" d="M6.4019156,101.876067c-.1373862-1.0082266-.412159-2.7505995-.8635711-5.4131051-.2747726-1.5759683-.5495451-3.1617272-.8243177-4.7376955l-.8733844-5.0900789c-.0392532-.2838708-.0588798-.6949911.0490665-1.164848.2747726-1.1256927,1.1383437-1.7130083,1.3738629-1.8696298,1.3934897-.3034448,2.7771659-.6166803,4.1706556-.9201326,1.8056487-.4111202,3.6014838-.8222404,5.4071325-1.2235774,1.3051698-.2838708,2.6103396-.5677417,3.9056958-.8516125,1.2070363-.2447155,2.4140727-.4992217,3.6211109-.7439371.843945-.1370401,1.6780765-.2642894,2.5220197-.401337.8145044-.1468308,1.6290089-.2936616,2.4435133-.4404849.7752522-.1370401,1.560316-.2642894,2.3355682-.401337.2355191,0,.4219725.1370401.431786.2642894,0,.0783107-.0785064.1957694-.4808518.3523909-.3630932.1468308-1.1579706.4111202-2.8458587.6166803-1.7663946.3328095-3.532791.6754171-5.2991855,1.0082266-2.0215408.469857-4.0430815.9299158-6.0646242,1.3997728-1.6584494.3523909-3.316898.7047818-4.9655329,1.0571726-1.04021.2251415-2.0706075.4502756-3.1108185.6852003-.4612252.1174661-.9224509.2251415-1.3934897.3426002-.1668263.088094-.3925324.2251415-.5887983.4600663-.5593584.6754171-.412159,1.5563868-.3827189,1.7032176-.0196266.3817555-.0098133.7733018.0098133,1.1746313v.088094c.098133.7439371.1962662,1.4780836.2943992,2.2220132.1079465.7830925.2257061,1.5759683.3336526,2.3590608.2158926,1.3018881.421972,2.5939855.6378651,3.8958736.1079465.7733018.2257061,1.5563868.3336526,2.3296886.1373862.9494972.2649593,1.8892038.4023454,2.838701-.098133.5285863-.2453327,1.164848-.3827189,1.1550573-.1177596,0-.1864529-.4992217-.2060795-.6949911l.0098107.0000299Z"/>
      <path class="st8" d="M6.0093832,76.0732668c-.2845859-1.0865373-.3925324-2.0164531-.4317856-2.6918702-.0588798-.9005512-.098133-1.5759683.1079465-2.4765194.2355191-1.0571726.6869313-1.810893.9126374-2.21223.3630923-.6068971.7065579-1.0082266.932264-1.2725235.1471997-.1664047.7065579-.8124572,1.5995692-1.4976575.6673047-.5187956,1.2266639-.8320311,1.5799426-1.027808.5397321-.3034448,1.0303974-.5677417,1.7369549-.7928757.6084249-.1859824,1.0794642-.2545025,1.5406889-.3034485.7556251-.0880977,1.5505025-.1859824,2.5907134-.0293647,1.2070373.1859824,2.060794.6068933,2.3453808.7635148.304212.1664047.5593582.3230262.735998.4404849-.4906654-.0783107-.9715172-.1566215-1.4621826-.2349248-.5102924-.06852-1.1579706-.1370401-1.9037821-.1272494-.4808518,0-1.2462905.0293647-2.1785545.1859862-.7850648.1272494-1.3738626.2251415-2.1000481.5481603-.5102924.2251415-.8537576.4502756-1.3346094.7733018-.6869313.4600663-1.344423.9005512-2.0117282,1.673853-.5789853.6656264-.9028243,1.2725235-1.1285304,1.6934344-.4317856.8124572-.6476781,1.4780836-.7065579,1.673853-.2257061.7243557-.3042125,1.3018881-.3827189,1.8402577-.1177596.8418218-.0883199,1.1452666-.2453327,2.0947639-.0686933.4209109-.1373862.7537204-.1864529.9788619h-.0098126Z"/>
      <path class="st6" d="M11.5342753,80.2040652c3.336525-.6558357,6.6730491-1.3214621,10.0095732-1.9772978-.5004789-2.1534932-1.0009578-4.2972031-1.5014367-6.4506963-.1766398-.4502756-.5691717-1.2823067-1.4131168-1.9577238-1.3836762-1.1061113-2.9538057-.9690712-3.5033504-.9201326-.4710383.0391554-2.1098607.1859862-3.3463376,1.5466036-.9126379,1.0082266-1.12853,2.1632839-1.2266634,2.7212349-.0981334.5090049-.1471992,1.1550573.1275731,2.9757411.1570128,1.0375912.412159,2.4275808.8635711,4.0622784l-.0098126-.0000075Z"/>
    </g>
    <g id="left_eye">
      <path d="M33.1039251,34.8338176c.1472011-.3230262.4514112-.8809772,1.0205849-1.3801951.2649597-.2251378.7948792-.626471,1.5701277-.8418218.8831991-.2349266,1.6093818-.0880977,1.9921002,0,.735998.1664047,1.2364751.4600663,1.6584476.7145687.8537567.5187956,1.3836762,1.0767466,1.8645299,1.5955459.1668244.1859824.7458097.8222441,1.3738645,1.7815284.716371,1.115902,1.0990894,2.0653992,1.3542374,2.7114479.2649597.6656264.4219725,1.1942127.5986123,1.7717414.2257056.7243594.2943985,1.0669596.3434643,1.3214621.0883199.479644.127574.8809772.1472011,1.174635-.6869323-1.0180173-1.2953563-1.8598391-1.7663946-2.4960971-.9224495-1.252942-1.4818077-2.0164569-2.3650069-2.9561634-.2747714-.2936578-.8046909-.8516088-1.5308773-1.5074482-1.0009578-.8907642-1.5995701-1.2627327-1.77621-1.3606174-.5593582-.3328132-.8537567-.5090086-1.324795-.6362617-.1668244-.0391554-1.0303965-.2545025-2.0902355.0489423-.5102924.1468308-.9028225.3621779-1.1579706.5285863.0294387-.1566178.0588812-.3132355.0883199-.4698533Z"/>
      <path d="M30.6898506,43.0464684h1.8449009c0,1.184422,0,2.368844.0098135,3.5532697.0883199.8711865.3238391,1.9968792.9028243,3.1813012.3729067.7635111,1.0402119,2.0947639,2.5220197,3.1225681.235521.1664047,1.2953563.8711865,2.8654877,1.1354797.5299195.0880977,1.5014348.2349285,2.6986595-.06852.4415996-.1076754,1.6388205-.4404886,2.7182866-1.5172352.4514112-.4600663.9420766-.9494972,1.1677822-1.7521637.2845868-1.0082266,0-1.9381461.3238409-2.0653992.1472011-.0587331.3434643.0880977.4906654.2251378,0-.1761954-.0196271-.4404886-.1177586-.7341464-.1668244-.5383733-.4710383-.8809772-.6673052-1.0767466-1.2070363-1.252942-2.6888478-2.1730746-2.6888478-2.1730746-1.324795-.8222441-2.3355682-1.3312528-3.3954034-1.8696261-1.7271404-.8711865-2.2276212-1.0278042-2.5023926-1.106115-.6673052-.1859824-1.6191972-.4600663-2.8164181-.3230262-1.5799431.1761954-2.7477253.9592842-3.3659647,1.4780798l.0098098-.0097832Z"/>
      <path class="st7" d="M33.8791773,43.3694946c-.1373857.626471-.2649597,1.5759683-.1373857,2.7310256.0785083.6852041.2747714,2.3296924,1.4229303,3.8371369,1.6093818,2.1045546,3.9743887,2.4960971,4.573001,2.5744078-.2060786-.1761954-.4906654-.4502756-.735998-.8516088-.5691736-.9201288-.5789853-1.8304707-.5887969-2.770181,0-1.1648443-.0098117-1.9479368.4906654-2.6625056.4121571-.5677417.8733837-.7047818.824318-1.0278042-.0294387-.2055601-.2453327-.3621779-1.6486359-.8222441-1.0107694-.3328132-1.5701277-.5187956-2.5023926-.7145687-.7065593-.1468308-1.3051717-.2447155-1.7075171-.2936578h.0098117Z"/>
      <path class="st3" d="M33.7319762,44.1917387c.0981316.0195777.2551443.0489423.4415996.1174624.2060786.06852.3532797.1468308.4023454.1664047.3238409.1664047.8145063.3328132,1.3738645.5285863.6182394.2153508,1.6290089.5873156,3.0323121,1.106115.0392541-.0489423.0981316-.1174624.1766398-.1957731.0588812-.0587331.1177586-.1076754.215894-.2055601.1570128-.1370401.1373857-.1174624.1668244-.1468308.0490658-.0489423.215894-.2251378.1962669-.3915463-.0196271-.1664047-.2257056-.2740801-.3238409-.3230262-.7654368-.3817555-1.7075171-.626471-1.7173288-.6362617-.716371-.1859824-.5887969-.2055601-1.2855446-.3817555-.5691736-.1468308-1.0107694-.2349285-1.3836762-.3034485-.4710383-.0880977-.8635721-.1468308-1.1677822-.1957731-.0294387.1370401-.0588812.2740801-.0785083.4209109-.0294387.1566178-.0490658.3034485-.0588812.4404886l.0098154.0000075Z"/>
      <path class="st10" d="M39.6592147,45.0041922c1.8350874.8516088,2.2178058,1.3508305,2.16874,1.664066-.0196271.1272531-.1177586.2153508-.1668244.4992179-.0196271.1174624-.0883199.557951.1668244.9494972.2747714.4209109.735998.5090086.9028225.5383733.3140255.0587331.5789853,0,.7261864-.0489423l-.0686929,1.184422c-.127574.3817555-.3630913.9397065-.7948792,1.5074482-.235521.3132355-.4710383.626471-.8733837.8809772-.1766398.1076754-1.059839.6754134-1.9234073.3523909-.7850638-.2936578-1.0892777-1.1354797-1.344422-1.8500484-.4219725-1.174635-.2747714-2.2024393-.2060786-2.5939855.1472011-.9299196.5201041-1.6151236.7556251-2.0556085.235521-.4404886.4710383-.7830888.6574898-1.027808Z"/>
      <path class="st7" d="M41.9849674,46.5018497c-.2257056.2153508-.3042139.4698533-.3336526.5677417-.0294387.1076754-.127574.4894309.0490658.8809772.1570128.3328132.4121571.479644.5397311.548164.3434643.2055601.6673052.1957731.8341296.1859824.2551443,0,.3630913-.06852.4023454-.0978847.0686929-.0489423.127574-.1076754.215894-.2055601.0785083-.0880977.127574-.1370401.1766398-.2153508.107947-.1664047.127574-.3328132.1472011-.4111202.0294387-.1566178.0098117-.2740801,0-.3817555-.0098117-.1174624-.0294387-.2838708-.0981316-.4600663-.0392541-.0978847-.1766398-.4209109-.5102924-.6068933-.2060786-.1076754-.3827184-.1272531-.4906654-.1272531s-.5691736-.0391554-.9420766.3132355l.0098117.0097832Z"/>
    </g>
    <g id="mouth">
      <path d="M38.0105787,60.7149249c-.2747714.3621779-.8046909,1.1648443-.8341296,2.2611723-.0294387,1.1354834.4906654,1.9283591,1.0107694,2.7310256.9911424,1.5270222,2.2472483,2.2905333,2.777164,2.6037762,1.2953563.7635111,2.4729539.9984359,2.993058,1.0865373.3729067.0587293,1.2855446.1859862,2.276687.0391554.5593582-.0783107.843945-.1174661,1.1874093-.2936616.3238409-.1664047.4121571-.2936616.6574898-.2936616.3336526,0,.4710383.2545062.9224495.557951.3434643.2251415.6182394.3132355,1.1579706.4796402.1864515.0587293.4808537.1370401,1.5014348.2740801.4906654.06852.951892.1272494,1.560316.1761954,1.059839.088094,2.2570599.1859862,3.6309244.0587293,1.9037803-.1761954,3.3168989-.6949911,4.1608402-1.0180173.8733837-.3328095,2.1491129-.8222404,3.5818586-1.8598391.5397349-.3915463.1570165-.1761954,2.060793-1.8011023.8046909-.6852003,1.4033032-1.1746313,1.8645299-2.0653992.1570165-.3132355.2551481-.5873156.3238409-.7830888.4906654.2838708.843945.5677417,1.0794623.7830888.2355173.2055601.372903.3523909.9617074.9886526.3630951.3817555.6476819.6949911.8145063.8711865-.0294387-.2740801-.0981316-.6558357-.264956-1.0767466-.0392541-.1076754-.1962632-.4992179-.5201041-.9592842-.3336489-.4698533-.6673052-.7537241-.8733837-.9299196-.7458134-.6362617-1.4719961-.9299196-1.7173288-1.0180173-.9224533-.3523909-1.7369521-.3817555-2.2374329-.3621779.1177624.1566178.2747714.3328132.4612266.5090086.264956.2349285.5201041.4013332.7261826.5090086.0686929,0,.1864552,0,.264956.0880977.107947.1272531.0196233.3426002-.0294387.479644-.1373857.3621779-.3630951.548164-.6673052.8711865-.2944022.3132355-.1962632.2545025-.5789815.6852041-.4612266.5090049-.843945.8711865-1.0500236,1.0473819-.4514112.4111202-1.2266634,1.115902-2.384634,1.8011023-.3532797.2055601-1.2855446.7341464-2.5907125,1.164848-.3729067.1272494-1.1187164.2936616-2.6201512.626471-1.4621844.3328095-1.7173288.3621816-1.9921002.3817555-.3925338.0293647-1.0009578,0-2.1981825-.0783107-1.4719961-.088094-1.8547145-.1370401-2.0215426-.1664047-1.2855446-.1664047-1.7860216-.3719648-2.0411697-.4894309-.4514112-.2055601-.8046909-.4404849-1.0303965-.6166803,0-1.164848-.0098117-2.3296886-.0196271-3.484746.235521.0293647.5986123.0587293,1.0303965,0,.8537567-.1174661,1.3149833-.469857,2.6299666-1.3018881,1.6780746-1.0669596,1.6780746-.9690749,2.276687-1.4487152.8831991-.7145687,1.3149833-1.0669596,1.5995701-1.742373.3238409-.7830888.4317842-1.9968792-.2060786-2.6918702-.0785083-.0783107-.2845868-.2936578-1.0303965-.5383733-1.2070363-.3915463-2.2374329-.3523909-2.4336997-.3426002-1.4916232.0587331-2.9734309-.1174624-4.465054-.1174624-.3532797,0-4.1412169.0195777-4.1510285.0195777-.1962669,0-.7458097.0391554-1.2364751.4600663-.4612266.3915463-.608424.8907642-.6771169,1.1550573-.0588812.1957731-.1570128.616684-.0785083,1.1452666.0883199.6068933.3434643,1.0082266.6771169,1.4976575.127574.1859824.2747714.3817555,1.1579706,1.3508305.9911424,1.0767466,1.1874093,1.252942,1.3640491,1.3899821.5986123.4698533,1.1089048.6949948,1.2364751.7537241.5299195.2349248,1.0107694.3426002,1.3640491.3915463,0,1.0767466-.0098117,2.1632839-.0196271,3.2400305-.0686929.1370401-.1962669.3328095-.4121571.469857-.2845868.1859862-.5593582.1468308-1.1089048.1468308-.7752522,0-.6771169.0587293-1.1285318.0293647-1.1187164-.0587293-1.9724731-.4404849-2.3748186-.6166803-.235521-.1076754-.7948792-.3817555-1.4229303-.8613958-.3729067-.2838708-.9224495-.7635111-1.452369-1.4682928-.2257056-.3034448-.6673052-.9299158-1.0107694-1.7815284-.1962669-.479644-.2551443-.7733018-.2649597-.8516088-.0490658-.2642932-.0588812-.4404886-.0981316-1.1550573-.0098117-.2349285-.0294387-.5383733-.0490658-.9103419l-.0196346-.0000149Z"/>
      <path class="st9" d="M42.6817113,58.1111524c.1766398-.4502756.5986123-.6754134.8831991-.8222441.3729067-.1957731.7261864-.2642932.951892-.2838708,2.7084712.0293647,5.4267577.0587331,8.1352326.0783107.1668244,0,.6280511.0195777,1.0794623.3426002.1373857.0978847.5495466.3817555.7261864.9397065.2257056.7047818-.0883199,1.3116751-.1472011,1.4193505-.3630913.3817555-.824318.8124572-1.3836762,1.2431551-2.1491129,1.673853-4.0528969,2.0458215-4.6613209,2.1437062-1.0107694.1566178-1.4425574.0391554-1.68789-.0587331-.4023454-.1566178-.7850638-.4992179-1.5505043-1.1942127-.2845868-.2545025-.608424-.548164-1.0107694-.9788619-.6574898-.6949911-.9911424-1.0473819-1.1972247-1.5955459-.1373857-.3621779-.3042139-.7928795-.127574-1.2333643l-.0098117.0000037Z"/>
    </g>
    <g id="right_eye">
      <path d="M81.6601689,45.0531345c-.2060786.1957731-.0785083.5775287,0,1.1550573.0981316.7145687.0294387,1.3018881-.0981316,2.4765194-.0196233.2055601-.1668244,1.6249106-.9126379,2.9659504-1.1579706,2.0849769-2.9832463,2.9561634-3.9056996,3.396652-1.795837.8516088-3.3561493.9397065-4.445427.9886489-1.3051717.0587331-2.8458606.1272531-4.6318822-.6460487-.7261826-.3132355-3.0225004-1.3116751-4.0430815-3.7784075-.3336526-.8124572-.4415996-1.5563906-.4710383-2.0751862-.2453327-.06852-.500477-.1272531-.7458097-.1957731.0392541-.2447155.0785083-.479644.1177586-.7243594.824318-.5873156,1.9626614-1.3312528,3.385588-2.0458215,2.16874-1.0865373,3.9449462-1.5759683,5.2108638-1.9283591,1.2953563-.3523909,2.8164219-.7635111,4.8673995-.9397065,1.4621807-.1272531,3.3659647-.1566178,5.5837742.1957731.4317879.1566178.8537604.3230262,1.2855409.479644.471042.548164.5299195.7635111.471042.8418218-.1668244.2447155-1.2953563-.5383733-1.68789-.1664047h.0196308Z"/>
      <path d="M62.1807555,43.8099795c-.1864515-.1566178.8930108-2.0262438,2.1098626-3.5924214.48085-.616684,1.1481552-1.4682928,2.2079941-2.4079994,1.1972247-1.0571726,2.2570637-1.6542753,3.8762534-2.5646171.7163747-.4013332,1.1972247-.6362617,1.6584513-.8418218.5299195-.2349285,1.2561021-.5383733,2.2374329-.7733018.5397349-.1272531,1.3444258-.3034485,2.4140727-.2936578.2551481,0,1.2462867.0293647,2.4925809.4013332.5887969.1761954,1.5308735.4600663,2.5710892,1.184422.3238409.2251378.8243142.5775287,1.3542337,1.1942127.7458134.8711865,1.108901,1.7619507,1.2855409,2.3296924-.2944022-.2740801-.7163747-.616684-1.2561021-.9494972-.735998-.4502756-1.3542337-.6558357-1.7369521-.7830888-.4023492-.1370401-1.1972247-.3719686-2.2178095-.4600663-1.4719961-.1272531-2.5710892.1174624-3.7977526.4013332-.372903.0783107-1.68789.3915463-3.336526,1.0865373-1.432742.5971064-2.4827655,1.2333643-3.0323083,1.5563906-.3434643.2055601-.9911461.6362617-2.2865024,1.5074482-1.0892777.7341464-1.2462867.8516088-2.1589246,1.4585059-1.2168517.8026665-1.1285318.7047818-1.6191972,1.0571726-.5593582.4013332-.7065593.548164-.7752522.4992179l.0098154-.0097944Z"/>
      <path class="st7" d="M63.819576,48.8804844c.48085-.2936578,1.000954-.5775287,1.5505043-.8418218,1.903784-.9299196,3.7094289-1.4291375,5.2304946-1.6934306-.107947.4306979-.2257094,1.0082266-.3140255,1.7130083-.0785083.6460487-.1570165,1.3018881-.0883162,2.1045546.0392541.4698533.107947,1.3410398.5397349,2.1926523.7261826,1.4291375,2.0215389,2.0751862,2.5907125,2.3101147-.0883162.0978847-.1668244.1957731-.2551481.2936578-1.1481552.1859824-2.0902317.1272531-2.7379136.0489423-.8537604-.1076754-2.3650106-.3132355-3.85663-1.3997728-.3925338-.2838708-1.0696469-.7830888-1.6584513-1.6836437-.7948792-1.2039997-.9617037-2.4177901-1.0009578-3.0344704l-.0000037-.0097907Z"/>
      <path class="st3" d="M63.819576,48.8511197c.3827184-.2349285.8930146-.5187956,1.5112502-.8222441.6574898-.3132355,1.167786-.5187956,1.6191972-.6852041.6182357-.2349285,1.2561021-.479644,2.1098626-.7047818.6280511-.1664047,1.167786-.2642932,1.5603123-.3230262-.0785083.3817555-.1570165.7635111-.2355173,1.1452666-.9617074.2447155-2.0215389.5677417-3.1500707,1.0082266-1.2266634.4698533-2.3061257.9886489-3.228579,1.4976575-.0490658-.1566178-.0981316-.3523909-.127574-.557951-.0294387-.2153508-.0490658-.4013332-.0490658-.5677417l-.0098154.0097982Z"/>
      <path class="st10" d="M70.3944889,46.3648096c-.0588774.4306979-.1373857,1.0571726-.1864552,1.810893-.0196233.4013332-.0490695,1.5955459,0,2.3982124.1275703,2.0849769,1.2953563,3.7979852,2.8851147,4.2874162,1.8547145.5677417,3.4837271-.7928795,4.072524-1.2725197,2.119678-1.7619507,2.2472483-4.4831856,2.2668716-4.9824072.0294387-.5971064.0392541-.9005512-.0785083-1.2039997-1.0107694-2.4765194-8.5375743-1.115902-8.9595468-1.037595Z"/>
      <path class="st7" d="M77.0577254,45.9732671c.6280511-.3426002,1.2855409-.0195777,1.4425574.0587331.1668244.0783107.471042.2349285.6771206.5775287.372903.626471.1373857,1.4682928-.2551481,1.9479368-.0785083.0978847-.264956.3230262-.5887969.4600663-.0490695.0195777-.7556214.3132355-1.3836799-.1174624-.372903-.2545025-.5102887-.626471-.5691736-.7830888-.2060786-.5677417-.0686929-1.0571726-.0294387-1.1942127.0588774-.1761954.215894-.6852041.7065593-.9592842v.0097832Z"/>
    </g>
    <g id="left_horn">
      <path class="st4" d="M38.1577761,17.8407745c.7654368-.8711874,1.7271404-1.8304716,2.885111-2.7799679,1.6093818-1.3214639,3.1696978-2.2513826,4.4846811-2.9072201-.4906654-.4209109-1.1677822-1.037594-1.9037803-1.8304716-.5397311-.5873175-1.6584476-1.8500489-2.885111-3.7881954-1.7467675-2.7701791-1.7075171-3.7392524-2.2079941-3.7294638-1.1775976.0195772-2.7575407,5.4718382-1.77621,10.7479027.3434643,1.8402605.9322649,3.2987645,1.4131149,4.2972031l-.0098117-.009787Z"/>
      <path class="st8" d="M39.9928673,15.9711484c-.4612266-.5873175-.8046909-1.0669596-1.0303965-1.4095617-.1472011-.2153499-.2551443-.3817565-.3630913-.5677398-.2453327-.4013332-.4023454-.7243576-.5201041-.9592842-.2551443-.5187965-.4808537-.9886507-.6476781-1.6542771-.1373857-.5677398-.1570128-1.0082275-.1864515-1.4389273-.0294387-.694992-.0686929-1.4291384.1766398-2.3688459.2747714-1.0865368.7654368-1.8402605.9322649-2.0947648.1864515-.2740813.3630913-.4894309.4906654-.6362603-.1177586.4404877-.235521.8809758-.3434643,1.3214635-.107947.4600649-.2257056,1.0473824-.2747714,1.7325855-.0392541.4404877-.0686929,1.1452685.0098117,2.0164555.0686929.7341464.1177586,1.2725207.3729067,1.9675126.1864515.5090077.3925338.8516097.6574898,1.2823095.3336526.5481631.843945,1.2823086,1.5799431,2.0751871-.1373857.1174633-.2747714.2349266-.4121571.3621788-.1472011.1272522-.2943985.2545043-.4317842.3817565l-.0098229-.0097879Z"/>
      <path d="M37.0685021,15.0020753c.2453327-.2642932.5789853-.6068943.9813307-.9886507.2943985-.2740811.9126379-.8516097,1.9234073-1.6249106.7850638-.6068943,1.9234073-1.4291384,3.4150305-2.3296914.0686929.06852.1472011.1468289.215894.2251378.127574.1272522.2453327.2642932.3630913.3915444-1.1383435.8124553-2.3257528,1.7130083-3.5426045,2.711447-1.0892777.900553-2.1000472,1.7913172-3.0224967,2.6625046-.0490658-.1272522-.0981316-.2545043-.1373857-.3817565-.0785083-.2251378-.1472011-.4404877-.2060786-.6558375l.0098117-.009787Z"/>
      <path d="M36.2834346,11.1159943c1.8350874-1.2137885,3.6701786-2.4275775,5.505266-3.6413665-.107947-.1272522-.235521-.2740815-.3532797-.4502765-.1177586-.1664066-.215894-.3328132-.3042139-.4894309-1.6290089.8907642-3.2580177,1.7913172-4.8870266,2.6820814-.0196271.2251378-.0196271.4502765-.0294387.694992,0,.4306988.0294387.832033.0686929,1.1942118v.0097888Z"/>
    </g>
    <g id="right_horn">
      <path class="st4" d="M83.7307773,19.8376537c.7850676-.4502756,1.5897585-.9103419,2.4140727-1.3508286,2.3650106-1.2725197,4.6809443-2.3786347,6.8889384-3.3183422,2.1785554-1.1942118,4.3571108-2.3786347,6.5356662-3.5728465l4.1706556-3.5532688c.0981316.0489433.3434643.1957722.5789815.4404877,2.1294859,2.2611705-.3042101,9.1132038-3.8075605,13.4006199-1.3444258,1.6444883-2.6986595,2.7310256-3.5229737,3.3281301-.8243142.5677398-1.6486359,1.1354797-2.4827655,1.7130083-.5299195-.8026665-1.4229266-1.9577238-2.8164219-2.9953169-1.2462867-.9299196-2.4435114-1.4389263-3.2972718-1.7227972.7850676-.6362599,1.1187164-1.1550573,1.0205849-1.5466017-.2060786-.7537241-2.1000472-1.0278042-5.6819058-.8222441Z"/>
      <path class="st8" d="M100.8549955,11.8403519c.1373857.0978866-.7556214,1.7130083-1.6780746,2.985529-.6378665.8711874-1.2266634,1.4976584-1.6388205,1.8989917-.1275703.1272522-.3434643.3328132-.735998.6754152-.7458134.6460487-1.795837,1.4976594-2.541643,1.9870903-1.8154603,1.1942108-4.072524,1.7423749-5.0146006,1.947935.0588774-.0880977.1275703-.1957731.1668244-.342602.0196233-.0880977.0490695-.1859843.0196233-.3034467-.0196233-.0783089-.0490695-.1272512-.0588774-.1566178-.0392541-.06852-.0883162-.1272512-.1177624-.1566178.1668244-.0195777.4023492-.0489423.6869285-.1174642,1.108901-.2545043,1.8350911-.7830888,2.4337035-1.2137885,2.4337035-1.732586,2.1883708-1.3997728,3.5327891-2.4569436.5495428-.4306988,1.2266634-.9690731,2.0509776-1.732586,1.9430381-1.8108949,2.7869757-3.12257,2.9145534-3.0246834l-.0196233.0097888Z"/>
      <path d="M91.3557138,14.8258808c.0883162.0391544.3238409.1859834.7948755.4894309.2944022.1859834.3140255.2545043,1.0794623.9494963.6673052.6166831.6967439.5971054,1.1187164,1.0082284.107947.0978866.4121571.4013332.8537604.8711865.9420766,1.0180173,1.7271442,1.8696261,2.4827655,3.0638388.5004808.8026665.5789815,1.1061131.9911461,1.6249106.0883162.1076754.3532797.4306998.6084277.9299196.0883162.1761954.1570165.3230244.1962632.4209109.3827184-.3034467.7654368-.6068952,1.1481552-.9201307l-.1472011-.2447155c-.3827184-.557951-.7654368-1.1256908-1.1481552-1.6836418-.5789815-.7733018-1.1481552-1.5466017-1.7271442-2.3199017-.8046909-.832033-1.5505043-1.5074482-2.1883708-2.016455-.3140255-.2545043-1.000954-.8026665-1.9135919-1.4095617-.9126379-.6068943-1.5308735-.9299186-1.7565829-1.0473819s-.4121571-.205561-.5495428-.2642932c-.1373857.06852-.2944022.1664066-.2845868.2740811,0,.1174633.2060786.1761954.4415958.2838699l.0000075-.0097916Z"/>
      <path d="M99.2554291,12.4766117c.1373857.1272522.107947.1174633.4121571.4404877.471042.5090077.5397349.5285854.8537604.8711874.1275703.137041.4121571.4502765.7163747.8907642.2060786.2936588.3434643.5285854.5593582.9103419.1373857.2349266.1864552.3328132.6182357,1.1452685.48085.900553.5593582,1.0473819.6869285,1.3410416.1570165.342602.264956.626471.3336489.8222441.264956-.6656264.5201041-1.3312528.7850676-1.9968782-.3827184-.4404877-.7654368-.8907642-1.1481552-1.3312518-.3336489-.4404877-.7065593-.900553-1.0990931-1.3606184-.372903-.4404877-.7458134-.8516097-1.108901-1.2431541-.3238409-.2936588-.6771206-.5873175-1.059839-.8809753-.2747714-.2153499-.5397349-.4111221-.7948755-.5873175-.3925338.1272522-.471042.2545043-.471042.3328132-.0098154.1664066.2845868.2545043.7163747.6558375v-.0097907Z"/>
    </g>
  </g>
</svg>